<svg width="35" height="35" viewBox="0 0 35 35" fill="none" xmlns="http://www.w3.org/2000/svg">
<path d="M17.4998 2.91669C9.44984 2.91669 2.9165 9.45002 2.9165 17.5C2.9165 25.55 9.44984 32.0834 17.4998 32.0834C25.5498 32.0834 32.0832 25.55 32.0832 17.5C32.0832 9.45002 25.5498 2.91669 17.4998 2.91669ZM17.4998 7.29169C19.9207 7.29169 21.8748 9.24585 21.8748 11.6667C21.8748 14.0875 19.9207 16.0417 17.4998 16.0417C15.079 16.0417 13.1248 14.0875 13.1248 11.6667C13.1248 9.24585 15.079 7.29169 17.4998 7.29169ZM17.4998 28C13.854 28 10.6311 26.1334 8.74984 23.3042C8.79359 20.4021 14.5832 18.8125 17.4998 18.8125C20.4019 18.8125 26.2061 20.4021 26.2498 23.3042C24.3686 26.1334 21.1457 28 17.4998 28Z" fill="#415F54"/>
</svg>
