<svg width="38" height="38" viewBox="0 0 38 38" fill="none" xmlns="http://www.w3.org/2000/svg">
<circle cx="19" cy="19" r="18.5" stroke="black"/>
<path d="M18.3231 13.3311L18.9999 13.9534L19.6767 13.3312C20.5818 12.4992 21.7663 12.0373 22.9957 12.037C23.6463 12.0375 24.2904 12.1667 24.8909 12.4169C25.4916 12.6672 26.0369 13.0338 26.4954 13.4956L27.205 12.791L26.4964 13.4966C28.4659 15.4744 28.4623 18.5383 26.5 20.4997L26.4999 20.4999L19 27.9998L11.5001 20.4999L11.4999 20.4997C9.53724 18.5379 9.53453 15.474 11.4996 13.5006L11.501 13.4991C11.9599 13.0364 12.5057 12.6691 13.107 12.4181C13.7082 12.1673 14.3531 12.0377 15.0045 12.037C16.2338 12.0372 17.4182 12.499 18.3231 13.3311Z" stroke="#2D3C37" stroke-width="2"/>
</svg>
